<svg width="48" height="48" viewBox="0 0 48 48" fill="none" xmlns="http://www.w3.org/2000/svg">
<path d="M4.24979 18.0289C4.24963 18.0192 4.24891 18.0095 4.24764 18C4.24891 17.9905 4.24963 17.9808 4.24979 17.9711C4.26005 17.3468 4.60254 16.7742 5.14968 16.4702L23.1497 6.47022C23.6782 6.17659 24.3209 6.17659 24.8494 6.47022L42.8494 16.4702C43.3966 16.7742 43.7391 17.3468 43.7493 17.9711C43.7495 17.9808 43.7502 17.9905 43.7515 18C43.7502 18.0095 43.7495 18.0192 43.7493 18.0289C43.7391 18.6532 43.3966 19.2258 42.8494 19.5298L38.6487 21.8635C38.5447 21.9213 38.4958 22.0444 38.5319 22.1578C39.7879 26.1076 40.0807 30.3099 39.3742 34.4111C39.2403 35.1881 38.6034 35.7796 37.8186 35.8558C33.1171 36.3121 28.6846 38.2592 25.1679 41.4128C24.5031 42.0091 23.496 42.009 22.8312 41.4128C21.3964 40.1261 19.8091 39.0402 18.1132 38.1745C18.0357 38.1349 17.9432 38.1385 17.869 38.1839C17.7948 38.2294 17.7496 38.3101 17.7496 38.3971V40C17.7496 40.9665 16.9661 41.75 15.9996 41.75C15.0331 41.75 14.2496 40.9665 14.2496 40V36.8282C14.2496 36.7164 14.1752 36.6181 14.0676 36.5877C12.8033 36.2302 11.5034 35.9841 10.1823 35.8558C9.39772 35.7796 8.76093 35.1882 8.627 34.4113C7.92 30.3104 8.2127 26.1082 9.46879 22.1587C9.50486 22.0453 9.45599 21.9222 9.35196 21.8644L5.14968 19.5298C4.60254 19.2258 4.26005 18.6532 4.24979 18.0289ZM11.8731 32.3517C11.8849 32.4641 11.9707 32.5546 12.0823 32.5724C12.7078 32.6722 13.3281 32.7949 13.942 32.9401C14.0164 32.9577 14.0947 32.9403 14.1547 32.8928C14.2146 32.8454 14.2496 32.7732 14.2496 32.6968V25C14.2496 24.9238 14.2545 24.8483 14.2642 24.7739C14.2774 24.6723 14.2273 24.5729 14.1377 24.5231L12.9323 23.8535C12.8654 23.8163 12.7851 23.8118 12.7145 23.8414C12.6438 23.8709 12.5906 23.9312 12.5701 24.005C11.8159 26.7162 11.5784 29.548 11.8731 32.3517ZM17.7496 33.9931C17.7496 34.094 17.8103 34.1851 17.9034 34.2239C20.0232 35.1067 22.023 36.2736 23.8456 37.6991C23.936 37.7699 24.0631 37.7699 24.1536 37.6991C27.5767 35.0217 31.6254 33.2569 35.9186 32.5723C36.0303 32.5545 36.1161 32.464 36.1279 32.3515C36.4223 29.5477 36.1848 26.7158 35.4307 24.0045C35.4101 23.9307 35.3569 23.8704 35.2863 23.8409C35.2156 23.8113 35.1353 23.8158 35.0684 23.8529L24.8729 29.5168L24.8523 29.5282L24.8523 29.5282L24.8494 29.5298L24.8494 29.5298C24.3209 29.8234 23.6782 29.8234 23.1497 29.5298L23.1496 29.5297L18.121 26.736C18.0435 26.693 17.9491 26.6942 17.8728 26.7391C17.7964 26.784 17.7496 26.866 17.7496 26.9546V33.9931ZM38.0027 18.2185C38.0821 18.1744 38.1313 18.0908 38.1313 18C38.1313 17.9092 38.0821 17.8256 38.0027 17.7815L24.121 10.0694C24.0455 10.0274 23.9537 10.0274 23.8782 10.0694L9.9964 17.7815C9.91703 17.8256 9.86781 17.9092 9.86781 18C9.86781 18.0908 9.91703 18.1744 9.9964 18.2185L12.4889 19.6033L12.4889 19.6033L12.4915 19.6047L12.5328 19.627L12.5341 19.6277L17.1786 22.2083C17.2541 22.2502 17.3459 22.2502 17.4214 22.2083L23.1497 19.0262C23.9946 18.5569 25.06 18.8613 25.5294 19.7062C25.9987 20.5511 25.6943 21.6165 24.8494 22.0858L21.2968 24.0593C21.2174 24.1033 21.1682 24.187 21.1682 24.2778C21.1682 24.3686 21.2174 24.4522 21.2968 24.4963L23.8782 25.9306C23.9537 25.9725 24.0455 25.9725 24.121 25.9306L38.0027 18.2185Z" fill="black" stroke="white" stroke-width="0.5" stroke-linecap="round" stroke-linejoin="round"/>
</svg>
